<svg width="40" height="40" viewBox="0 0 40 40" fill="none" xmlns="http://www.w3.org/2000/svg">
<path d="M21.52 21.425L19.0025 23.9425C18.7175 24.2275 18.575 24.56 18.575 24.94C18.575 25.32 18.7175 25.6525 19.0025 25.9375C19.2875 26.2225 19.62 26.365 20 26.365C20.38 26.365 20.7125 26.2225 20.9975 25.9375L25.9375 20.9975C26.2225 20.7125 26.365 20.38 26.365 20C26.365 19.62 26.2225 19.2875 25.9375 19.0025L20.9975 14.0625C20.7125 13.7775 20.38 13.635 20 13.635C19.62 13.635 19.2875 13.7775 19.0025 14.0625C18.7175 14.3475 18.575 14.68 18.575 15.06C18.575 15.44 18.7175 15.7725 19.0025 16.0575L21.52 18.575H14.3C13.8883 18.575 13.5479 18.7096 13.2787 18.9788C13.0096 19.2479 12.875 19.5883 12.875 20C12.875 20.4117 13.0096 20.7521 13.2787 21.0212C13.5479 21.2904 13.8883 21.425 14.3 21.425H21.52ZM20 39C17.4033 39 14.9492 38.5013 12.6375 37.5037C10.3258 36.5062 8.30708 35.1446 6.58125 33.4188C4.85542 31.6929 3.49375 29.6742 2.49625 27.3625C1.49875 25.0508 1 22.5967 1 20C1 17.3717 1.49875 14.9017 2.49625 12.59C3.49375 10.2783 4.85542 8.2675 6.58125 6.5575C8.30708 4.8475 10.3258 3.49375 12.6375 2.49625C14.9492 1.49875 17.4033 1 20 1C22.6283 1 25.0983 1.49875 27.41 2.49625C29.7217 3.49375 31.7325 4.8475 33.4425 6.5575C35.1525 8.2675 36.5062 10.2783 37.5037 12.59C38.5013 14.9017 39 17.3717 39 20C39 22.5967 38.5013 25.0508 37.5037 27.3625C36.5062 29.6742 35.1525 31.6929 33.4425 33.4188C31.7325 35.1446 29.7217 36.5062 27.41 37.5037C25.0983 38.5013 22.6283 39 20 39ZM20 36.15C24.4967 36.15 28.3125 34.5746 31.4475 31.4237C34.5825 28.2729 36.15 24.465 36.15 20C36.15 15.5033 34.5825 11.6875 31.4475 8.5525C28.3125 5.4175 24.4967 3.85 20 3.85C15.535 3.85 11.7271 5.4175 8.57625 8.5525C5.42542 11.6875 3.85 15.5033 3.85 20C3.85 24.465 5.42542 28.2729 8.57625 31.4237C11.7271 34.5746 15.535 36.15 20 36.15Z" fill="#FFB600"/>
</svg>
