<svg width="40" height="40" viewBox="0 0 40 40" fill="none" xmlns="http://www.w3.org/2000/svg">
<path d="M18.48 21.425L20.9975 23.9425C21.2825 24.2275 21.425 24.56 21.425 24.94C21.425 25.32 21.2825 25.6525 20.9975 25.9375C20.7125 26.2225 20.38 26.365 20 26.365C19.62 26.365 19.2875 26.2225 19.0025 25.9375L14.0625 20.9975C13.7775 20.7125 13.635 20.38 13.635 20C13.635 19.62 13.7775 19.2875 14.0625 19.0025L19.0025 14.0625C19.2875 13.7775 19.62 13.635 20 13.635C20.38 13.635 20.7125 13.7775 20.9975 14.0625C21.2825 14.3475 21.425 14.68 21.425 15.06C21.425 15.44 21.2825 15.7725 20.9975 16.0575L18.48 18.575H25.7C26.1117 18.575 26.4521 18.7096 26.7213 18.9788C26.9904 19.2479 27.125 19.5883 27.125 20C27.125 20.4117 26.9904 20.7521 26.7213 21.0212C26.4521 21.2904 26.1117 21.425 25.7 21.425H18.48ZM20 39C22.5967 39 25.0508 38.5013 27.3625 37.5037C29.6742 36.5062 31.6929 35.1446 33.4188 33.4188C35.1446 31.6929 36.5063 29.6742 37.5037 27.3625C38.5012 25.0508 39 22.5967 39 20C39 17.3717 38.5012 14.9017 37.5037 12.59C36.5063 10.2783 35.1446 8.2675 33.4188 6.5575C31.6929 4.8475 29.6742 3.49375 27.3625 2.49625C25.0508 1.49875 22.5967 1 20 1C17.3717 1 14.9017 1.49875 12.59 2.49625C10.2783 3.49375 8.2675 4.8475 6.5575 6.5575C4.8475 8.2675 3.49375 10.2783 2.49625 12.59C1.49875 14.9017 1 17.3717 1 20C1 22.5967 1.49875 25.0508 2.49625 27.3625C3.49375 29.6742 4.8475 31.6929 6.5575 33.4188C8.2675 35.1446 10.2783 36.5062 12.59 37.5037C14.9017 38.5013 17.3717 39 20 39ZM20 36.15C15.5033 36.15 11.6875 34.5746 8.5525 31.4237C5.4175 28.2729 3.85 24.465 3.85 20C3.85 15.5033 5.4175 11.6875 8.5525 8.5525C11.6875 5.4175 15.5033 3.85 20 3.85C24.465 3.85 28.2729 5.4175 31.4237 8.5525C34.5746 11.6875 36.15 15.5033 36.15 20C36.15 24.465 34.5746 28.2729 31.4237 31.4237C28.2729 34.5746 24.465 36.15 20 36.15Z" fill="#FFB600"/>
</svg>
