<svg width="32" height="32" viewBox="0 0 32 32" fill="none" xmlns="http://www.w3.org/2000/svg">
<g filter="url(#filter0_d_1220_725)">
<circle cx="16" cy="15" r="11" fill="white"/>
</g>
<path d="M15.8032 5.66357C13.9567 5.66357 12.1516 6.21115 10.6162 7.23704C9.08082 8.26294 7.88415 9.72109 7.17749 11.4271C6.47084 13.1331 6.28595 15.0104 6.6462 16.8214C7.00645 18.6325 7.89565 20.2961 9.20138 21.6018C10.5071 22.9076 12.1707 23.7968 13.9818 24.157C15.7929 24.5173 17.6701 24.3324 19.3761 23.6257C21.0821 22.9191 22.5403 21.7224 23.5662 20.187C24.5921 18.6517 25.1396 16.8466 25.1396 15C25.1396 12.5238 24.156 10.1491 22.4051 8.39815C20.6542 6.64723 18.2794 5.66357 15.8032 5.66357ZM20.6471 13.0538L14.7058 18.9951C14.5466 19.1543 14.3308 19.2436 14.1057 19.2436C13.8806 19.2436 13.6648 19.1543 13.5056 18.9951L10.9593 16.4488C10.8047 16.2888 10.7192 16.0744 10.7211 15.8518C10.723 15.6293 10.8123 15.4164 10.9697 15.259C11.127 15.1017 11.3399 15.0124 11.5624 15.0105C11.785 15.0085 11.9994 15.0941 12.1595 15.2487L14.1057 17.1949L19.447 11.8536C19.607 11.699 19.8214 11.6135 20.044 11.6154C20.2665 11.6173 20.4794 11.7066 20.6368 11.864C20.7942 12.0213 20.8834 12.2342 20.8854 12.4568C20.8873 12.6793 20.8017 12.8937 20.6471 13.0538Z" fill="#00863E"/>
<defs>
<filter id="filter0_d_1220_725" x="0.416667" y="0.333333" width="31.1667" height="31.1667" filterUnits="userSpaceOnUse" color-interpolation-filters="sRGB">
<feFlood flood-opacity="0" result="BackgroundImageFix"/>
<feColorMatrix in="SourceAlpha" type="matrix" values="0 0 0 0 0 0 0 0 0 0 0 0 0 0 0 0 0 0 127 0" result="hardAlpha"/>
<feOffset dy="0.916667"/>
<feGaussianBlur stdDeviation="2.29167"/>
<feComposite in2="hardAlpha" operator="out"/>
<feColorMatrix type="matrix" values="0 0 0 0 0 0 0 0 0 0 0 0 0 0 0 0 0 0 0.25 0"/>
<feBlend mode="normal" in2="BackgroundImageFix" result="effect1_dropShadow_1220_725"/>
<feBlend mode="normal" in="SourceGraphic" in2="effect1_dropShadow_1220_725" result="shape"/>
</filter>
</defs>
</svg>
