<svg width="70" height="70" viewBox="0 0 70 70" fill="none" xmlns="http://www.w3.org/2000/svg">
<circle cx="35" cy="35" r="33" fill="#00863E"/>
<path d="M35.3235 34.5147C33.5441 34.5147 32.0882 33.9485 30.9559 32.8161C29.8235 31.6838 29.2573 30.2279 29.2573 28.4485C29.2573 26.6691 29.8235 25.2132 30.9559 24.0809C32.0882 22.9485 33.5441 22.3823 35.3235 22.3823C37.1029 22.3823 38.5588 22.9485 39.6911 24.0809C40.8235 25.2132 41.3897 26.6691 41.3897 28.4485C41.3897 30.2279 40.8235 31.6838 39.6911 32.8161C38.5588 33.9485 37.1029 34.5147 35.3235 34.5147ZM45.8382 47.4963H24.8088C24.1415 47.4963 23.5703 47.2587 23.0951 46.7835C22.6199 46.3083 22.3823 45.7371 22.3823 45.0698V43.6948C22.3823 42.6703 22.6385 41.7941 23.1507 41.0661C23.663 40.3382 24.3235 39.7855 25.1323 39.4081C26.9387 38.5992 28.6709 37.9926 30.329 37.5882C31.9871 37.1838 33.6519 36.9816 35.3235 36.9816C36.9951 36.9816 38.6532 37.1905 40.2978 37.6084C41.9424 38.0263 43.6668 38.6288 45.471 39.4159C46.3149 39.7968 46.9915 40.349 47.5008 41.0726C48.01 41.7962 48.2647 42.6703 48.2647 43.6948V45.0698C48.2647 45.7371 48.0271 46.3083 47.5519 46.7835C47.0767 47.2587 46.5055 47.4963 45.8382 47.4963ZM24.8088 45.0698H45.8382V43.6948C45.8382 43.2635 45.7101 42.8523 45.454 42.4614C45.1979 42.0704 44.8811 41.7806 44.5036 41.5919C42.7782 40.7561 41.201 40.1832 39.772 39.8731C38.3431 39.5631 36.8603 39.4081 35.3235 39.4081C33.7867 39.4081 32.2904 39.5631 30.8345 39.8731C29.3786 40.1832 27.8014 40.7561 26.1029 41.5919C25.7255 41.7806 25.4154 42.0704 25.1728 42.4614C24.9301 42.8523 24.8088 43.2635 24.8088 43.6948V45.0698ZM35.3235 32.0882C36.375 32.0882 37.2445 31.7445 37.932 31.057C38.6195 30.3695 38.9632 29.5 38.9632 28.4485C38.9632 27.397 38.6195 26.5275 37.932 25.84C37.2445 25.1525 36.375 24.8088 35.3235 24.8088C34.272 24.8088 33.4025 25.1525 32.715 25.84C32.0275 26.5275 31.6838 27.397 31.6838 28.4485C31.6838 29.5 32.0275 30.3695 32.715 31.057C33.4025 31.7445 34.272 32.0882 35.3235 32.0882Z" fill="white"/>
</svg>
