<svg width="25" height="25" viewBox="0 0 25 25" fill="none" xmlns="http://www.w3.org/2000/svg">
<path d="M12.375 23.8125C12.25 23.8125 12.1354 23.7917 12.0312 23.75C11.9271 23.7083 11.8229 23.6354 11.7188 23.5312L5.53125 17.3437C5.34375 17.1562 5.25 16.9375 5.25 16.6875C5.25 16.4375 5.34375 16.2187 5.53125 16.0312C5.71875 15.8437 5.9375 15.75 6.1875 15.75C6.4375 15.75 6.65625 15.8437 6.84375 16.0312L12.375 21.5625L17.9062 16.0312C18.0937 15.8437 18.3125 15.75 18.5625 15.75C18.8125 15.75 19.0312 15.8437 19.2188 16.0312C19.4062 16.2187 19.5 16.4375 19.5 16.6875C19.5 16.9375 19.4062 17.1562 19.2188 17.3437L13.0312 23.5312C12.9271 23.6354 12.8229 23.7083 12.7187 23.75C12.6146 23.7917 12.5 23.8125 12.375 23.8125Z" fill="#0E0E0E"/>
<path d="M12.375 16.8125C12.25 16.8125 12.1354 16.7917 12.0312 16.75C11.9271 16.7083 11.8229 16.6354 11.7188 16.5312L5.53125 10.3437C5.34375 10.1562 5.25 9.9375 5.25 9.6875C5.25 9.4375 5.34375 9.21875 5.53125 9.03125C5.71875 8.84375 5.9375 8.75 6.1875 8.75C6.4375 8.75 6.65625 8.84375 6.84375 9.03125L12.375 14.5625L17.9062 9.03125C18.0937 8.84375 18.3125 8.75 18.5625 8.75C18.8125 8.75 19.0312 8.84375 19.2188 9.03125C19.4062 9.21875 19.5 9.4375 19.5 9.6875C19.5 9.9375 19.4062 10.1562 19.2188 10.3437L13.0312 16.5312C12.9271 16.6354 12.8229 16.7083 12.7187 16.75C12.6146 16.7917 12.5 16.8125 12.375 16.8125Z" fill="#0E0E0E" fill-opacity="0.85"/>
<path d="M12.375 9.8125C12.25 9.8125 12.1354 9.79167 12.0312 9.75C11.9271 9.70833 11.8229 9.63542 11.7188 9.53125L5.53125 3.34375C5.34375 3.15625 5.25 2.9375 5.25 2.6875C5.25 2.4375 5.34375 2.21875 5.53125 2.03125C5.71875 1.84375 5.9375 1.75 6.1875 1.75C6.4375 1.75 6.65625 1.84375 6.84375 2.03125L12.375 7.5625L17.9062 2.03125C18.0937 1.84375 18.3125 1.75 18.5625 1.75C18.8125 1.75 19.0312 1.84375 19.2188 2.03125C19.4062 2.21875 19.5 2.4375 19.5 2.6875C19.5 2.9375 19.4062 3.15625 19.2188 3.34375L13.0312 9.53125C12.9271 9.63542 12.8229 9.70833 12.7187 9.75C12.6146 9.79167 12.5 9.8125 12.375 9.8125Z" fill="#0E0E0E" fill-opacity="0.5"/>
</svg>
