<svg width="72" height="72" viewBox="0 0 72 72" fill="none" xmlns="http://www.w3.org/2000/svg">
<path d="M36 70C54.7777 70 70 54.7777 70 36C70 17.2223 54.7777 2 36 2C17.2223 2 2 17.2223 2 36C2 54.7777 17.2223 70 36 70Z" fill="#F4F4F4"/>
<path d="M21 27.9048V46H51V27.9048L36 38.2431L21 27.9048Z" fill="#9E9E9E"/>
<path d="M21 26L36 36.4762L51 26H21Z" fill="#9E9E9E"/>
<circle cx="54.5" cy="58.5" r="8.5" fill="#FFB600"/>
<path d="M56.161 55.3224L58.6587 57.9372C58.8081 58.0816 58.8828 58.2784 58.8828 58.495C58.8828 58.7117 58.8081 58.9059 58.6587 59.0528L56.161 61.6775C55.8646 61.9888 55.3815 61.9888 55.0852 61.6775C54.7889 61.3662 54.7889 60.8632 55.0852 60.5519L56.2855 59.2969H50.8817C50.4583 59.2969 50.1172 58.9408 50.1172 58.5C50.1172 58.0592 50.4583 57.7031 50.8792 57.7031H56.283L55.0827 56.448C54.7864 56.1368 54.7864 55.6337 55.0827 55.3224C55.3815 55.0112 55.8622 55.0112 56.161 55.3224Z" fill="white"/>
</svg>
