<svg width="55" height="55" viewBox="0 0 55 55" fill="none" xmlns="http://www.w3.org/2000/svg">
<g clip-path="url(#clip0_1431_3760)">
<path d="M55 27.5C55 12.3122 42.6878 0 27.5 0C12.3122 0 0 12.3122 0 27.5C0 41.226 10.0564 52.6029 23.2031 54.6659V35.4492H16.2207V27.5H23.2031V21.4414C23.2031 14.5492 27.3087 10.7422 33.5903 10.7422C36.5991 10.7422 39.7461 11.2793 39.7461 11.2793V18.0469H36.2784C32.8623 18.0469 31.7969 20.1666 31.7969 22.3414V27.5H39.4238L38.2046 35.4492H31.7969V54.6659C44.9437 52.6029 55 41.226 55 27.5Z" fill="#1877F2"/>
<path d="M38.2046 35.4492L39.4238 27.5H31.7969V22.3414C31.7969 20.1666 32.8622 18.0469 36.2784 18.0469H39.7461V11.2793C39.7461 11.2793 36.599 10.7422 33.5903 10.7422C27.3087 10.7422 23.2031 14.5492 23.2031 21.4414V27.5H16.2207V35.4492H23.2031V54.6659C24.6032 54.8856 26.0382 55 27.5 55C28.9618 55 30.3967 54.8856 31.7969 54.6659V35.4492H38.2046Z" fill="white"/>
</g>
<defs>
<clipPath id="clip0_1431_3760">
<rect width="55" height="55" fill="white"/>
</clipPath>
</defs>
</svg>
