<svg width="125" height="140" viewBox="0 0 125 140" fill="none" xmlns="http://www.w3.org/2000/svg">
<rect x="0.5" y="0.5" width="124" height="139" rx="8.5" fill="#F3F3F3" stroke="#E4E4E4"/>
<g clip-path="url(#clip0_1244_1356)">
<path d="M35.3507 115.206C28.2381 113.892 22.6228 106.975 22.7085 99.7675C22.7575 95.4787 24.2026 91.8826 26.8021 88.6359C27.093 87.7701 27.8156 87.263 28.4218 86.657C31.2632 84.3873 34.5454 83.3299 38.1094 83.0176C41.6733 82.7053 45.1852 82.5259 48.7063 82.0899C49.3094 81.9786 49.9318 82.0507 50.4944 82.2971C50.972 82.6434 50.8465 83.1165 50.7056 83.5525C50.3382 84.6811 50.8495 85.3861 51.7068 86.0262C57.8641 90.6334 65.0012 90.6427 71.2319 86.0571C72.1505 85.3799 72.6587 84.6285 72.2515 83.4504C72.1168 83.0608 72.0586 82.6372 72.4505 82.3187C74.2692 81.6168 76.0849 82.3187 77.8791 82.43C80.7144 82.6248 83.5526 82.8599 86.3756 83.2278C89.3708 83.5837 92.2104 84.7683 94.5813 86.6508C95.1936 87.2692 95.907 87.7856 96.2009 88.6576C98.831 91.8919 100.337 95.5004 100.27 99.7891C100.239 103.434 98.9656 106.957 96.6642 109.765C94.3627 112.573 91.1738 114.494 87.634 115.206C87.6022 115.054 87.6049 114.897 87.642 114.746C87.6792 114.595 87.7497 114.454 87.8484 114.334C90.4203 110.933 89.5568 106.96 89.5936 103.144C89.5863 102.726 89.4396 102.323 89.1772 102C88.7638 101.474 88.2893 100.806 87.5789 101.041C86.9666 101.252 87.1992 102.028 87.1901 102.566C87.1656 104.73 87.1564 106.895 87.1901 109.059C87.2176 110.986 86.544 112.683 85.6745 114.341C85.3707 114.881 84.8964 115.304 84.3273 115.54C81.7952 118.218 78.6599 119.189 75.0623 118.994C73.1333 118.892 71.1921 118.951 69.2448 118.935C64.8481 118.008 62.417 115.107 61.3699 110.859C61.3699 110.621 61.1494 110.93 61.3301 110.831C61.4189 110.782 61.4648 110.809 61.4617 110.908C61.4097 114.075 57.8978 118.045 54.5972 118.694C54.1936 118.724 53.7955 118.805 53.4122 118.935C50.8158 118.935 48.2072 119.041 45.623 118.935C42.849 118.827 40.5864 117.488 38.6513 115.534C36.5876 114.068 35.9263 111.898 35.8222 109.523C35.7181 107.148 35.8222 104.801 35.7854 102.439C35.7854 101.951 35.9753 101.27 35.3843 101.072C34.723 100.853 34.2637 101.416 33.8718 101.889C33.4737 102.432 33.2795 103.1 33.3238 103.775C33.3238 105.63 33.2901 107.485 33.3238 109.319C33.3605 110.908 33.9698 112.312 34.7291 113.67C35.0078 114.14 35.4517 114.56 35.3507 115.206Z" fill="#E0E0E0"/>
<path d="M28.2278 87.1725C31.902 84.031 36.4059 83.53 40.9435 83.1744C44.1339 82.9209 47.3274 82.6952 50.5208 82.4571C50.7144 82.3917 50.8878 82.2767 51.0241 82.1233C51.1604 81.9699 51.255 81.7834 51.2985 81.582C52.1558 78.9104 52.8876 76.211 53.007 73.3817C52.8832 72.88 52.6159 72.4262 52.2385 72.0769C49.7646 69.4697 47.9168 66.3235 46.8375 62.881C46.5772 62.0832 46.4884 61.1401 45.6893 60.5959C39.6667 58.9911 39.4892 54.0128 40.1015 49.8694C40.3863 47.9708 41.4395 47.5317 43.2031 48.2336C43.6134 48.3975 43.9931 48.7531 44.486 48.4686C44.9943 47.6678 44.8198 46.768 44.7922 45.9115C44.7646 44.619 45.279 43.6635 46.1976 42.8194C48.7633 40.4261 51.7853 39.3624 55.2482 39.3376C58.0957 39.316 60.9463 39.551 63.7876 39.0501C67.3271 38.4317 70.2174 36.8485 72.1739 33.71C72.9302 32.501 73.1904 32.5226 74.1702 33.6605C76.3349 36.1806 77.1279 39.2449 77.5688 42.4452C77.6331 42.9028 77.6362 43.3728 77.7341 43.8212C78.0801 44.9313 77.8658 46.0722 77.9423 47.1978C78.0342 48.5769 78.2485 48.716 79.5284 48.2615C81.3318 47.6214 82.2442 47.9801 82.5902 49.758C83.0892 52.3214 83.0464 54.8909 81.7573 57.2719C80.7592 59.1271 79.0752 60.0238 77.1432 60.5495C76.5308 60.8587 76.3594 61.4524 76.1849 62.043C75.0734 65.8277 73.3129 69.2383 70.5297 72.0645C70.1501 72.4096 69.8778 72.8586 69.7459 73.357C69.8102 76.2079 70.5205 78.9228 71.4421 81.5975C71.489 81.7985 71.5851 81.9845 71.7215 82.1384C71.8579 82.2924 72.0302 82.4093 72.2229 82.4787C77.183 82.9023 82.1554 83.2239 87.1002 83.7867C89.8558 84.0959 92.29 85.4966 94.5098 87.188C95.1038 87.3241 95.465 86.9437 95.7865 86.551C97.3944 84.5686 98.438 82.1819 98.8055 79.6463C98.837 79.4962 98.8311 79.3404 98.7884 79.1931C98.7456 79.0458 98.6673 78.9115 98.5605 78.8022L94.6261 78.7682C93.8974 78.5239 93.1228 78.6631 92.3787 78.4312C88.576 77.2407 87.088 75.2154 86.7603 71.1523C86.3654 66.2421 87.1002 61.4122 87.538 56.5545C88.0463 50.9238 88.7627 45.2992 87.9912 39.6283C87.6607 36.8624 86.8567 34.1756 85.6152 31.6878C83.5454 27.699 80.2693 25.318 75.9154 24.4213C75.871 24.3952 75.8222 24.3774 75.7715 24.3687C71.5126 24.4955 67.9547 22.0404 63.9897 21.1035C58.3713 19.7739 52.7406 19.4739 47.1498 21.289C40.2148 23.6792 36.4855 28.7503 35.3802 35.8899C34.3025 42.8503 34.624 49.8446 35.2088 56.8297C35.5456 60.8278 36.2988 64.7857 36.3018 68.8147C36.2831 70.15 36.1199 71.4793 35.815 72.7788C35.1016 76.075 33.0287 77.9117 29.7802 78.5085C29.229 78.6074 28.6565 78.5301 28.1299 78.7496L24.2046 78.7867C23.7239 80.4812 24.4496 81.9685 25.0252 83.4651C25.4408 84.5645 26.052 85.5778 26.8286 86.4552C27.193 86.8633 27.5665 87.321 28.2278 87.1725Z" fill="#757575"/>
<path d="M84.3242 115.515C85.9745 113.388 86.8716 111.022 86.7737 108.267C86.6879 105.908 86.7737 103.546 86.7492 101.183C86.7492 100.256 87.0309 99.9681 87.9249 100.379C89.3548 101.038 90.1968 102.018 90.1355 103.7C90.0804 105.29 90.0682 106.885 90.1355 108.474C90.2457 111.087 89.3211 113.27 87.6371 115.187C86.5676 115.529 85.4391 115.641 84.3242 115.515Z" fill="#BEBEBE"/>
<path d="M35.3507 115.206C33.6943 113.267 32.7757 111.063 32.8584 108.456C32.9105 106.811 32.889 105.163 32.8584 103.509C32.8389 103.071 32.9153 102.635 33.082 102.231C33.2487 101.827 33.5017 101.465 33.8229 101.171C34.4046 100.618 35.1885 100.123 35.859 100.318C36.5969 100.531 36.1927 101.48 36.205 102.096C36.2539 104.152 36.3182 106.217 36.205 108.28C36.0457 111.063 37.0623 113.394 38.6544 115.546C37.5417 115.664 36.417 115.548 35.3507 115.206Z" fill="#BEBEBE"/>
<path d="M53.4214 118.916C56.2015 117.921 58.6265 116.477 60.1788 113.799C60.7728 112.772 60.9381 111.591 61.5413 110.397C62.2792 113.094 63.4917 115.326 65.6502 116.987C66.7586 117.843 68.1578 118.069 69.254 118.904L53.4214 118.916Z" fill="#BEBEBE"/>
<path d="M50.623 82.4666C51.8477 79.492 52.4295 76.369 52.8153 73.1903C53.5562 73.0697 54.04 73.6016 54.6003 73.9293C59.193 76.6287 63.7857 76.536 68.3784 73.9293C68.9387 73.6201 69.4194 73.0697 70.1635 73.2027C70.5554 76.369 71.1769 79.4827 72.3435 82.479C73.2191 85.2155 73.2161 85.2372 70.7054 86.9131C63.8439 91.4863 57.2335 90.6236 50.9935 86.072C49.5208 84.9682 50.2127 83.7189 50.623 82.4666Z" fill="#BEBEBE"/>
<path d="M53.0108 73.1965C58.8282 77.442 64.7069 77.442 70.362 73.1965C73.681 70.058 75.7661 66.1867 77.0092 61.8083C77.1299 61.4761 77.2731 61.1528 77.4378 60.8405C78.6809 58.676 78.5707 56.2023 78.8279 53.843C79.1892 50.4943 78.436 47.1764 78.4115 43.8308C78.1635 39.6348 77.1868 35.7295 74.1678 32.5879C73.4667 31.8551 73.0993 31.617 72.4961 32.7858C70.2487 37.1364 66.351 38.6608 61.7583 38.8587C58.6139 38.9916 55.4572 38.6608 52.3219 39.2297C49.4101 39.7585 47.2454 41.4746 45.2369 43.4937C44.8021 43.9328 44.7929 44.5141 44.7745 45.08C44.7378 46.2086 44.7163 47.3372 44.6888 48.4813C44.5228 48.6412 44.3986 48.8401 44.327 49.0601C44.2554 49.2802 44.2388 49.5147 44.2785 49.7429C44.6031 53.0391 44.551 56.3785 45.3532 59.6376C45.4339 60.0949 45.647 60.5178 45.9656 60.8528C47.1903 64.2758 48.3476 67.7266 50.6838 70.593C51.4186 71.4711 52.23 72.3215 53.0108 73.1965Z" fill="#E0E0E0"/>
<path d="M44.772 43.8281C44.772 46.1627 44.8638 48.4972 44.772 50.8256C44.6434 54.2269 45.3292 57.5107 45.7426 60.8378C42.4021 60.4142 39.9006 57.7457 39.6526 54.1774C39.5485 52.7025 39.4169 51.1935 39.7812 49.7279C40.3783 47.3284 41.4897 46.8306 43.685 47.9314C43.8994 48.0365 44.1045 48.1633 44.3831 48.3179C44.7322 46.7594 44.1933 45.2412 44.772 43.8281Z" fill="#BEBEBE"/>
<path d="M77.2239 60.8222C77.8999 56.7299 78.3243 52.5992 78.4945 48.4538C78.8705 48.1948 79.2599 47.9564 79.6611 47.7395C81.3818 46.917 82.6188 47.353 83.0291 49.2083C83.8251 52.8817 83.8068 56.4655 80.7878 59.3009C79.8253 60.2331 78.5566 60.7747 77.2239 60.8222Z" fill="#BEBEBE"/>
</g>
<defs>
<clipPath id="clip0_1244_1356">
<rect width="81" height="99" fill="white" transform="translate(21 20)"/>
</clipPath>
</defs>
</svg>
