<svg width="55" height="55" viewBox="0 0 55 55" fill="none" xmlns="http://www.w3.org/2000/svg">
<circle cx="27.5" cy="27.5" r="27.5" fill="#EBEBEB"/>
<g clip-path="url(#clip0_1431_3774)">
<path d="M30.2502 21.0833H35.2002C36.0429 21.0833 36.8773 21.2492 37.6558 21.5717C38.4343 21.8942 39.1416 22.3668 39.7375 22.9627C40.3333 23.5585 40.806 24.2659 41.1284 25.0444C41.4509 25.8229 41.6169 26.6573 41.6169 27.4999C41.6169 28.3426 41.4509 29.177 41.1284 29.9555C40.806 30.734 40.3333 31.4413 39.7375 32.0372C39.1416 32.633 38.4343 33.1057 37.6558 33.4281C36.8773 33.7506 36.0429 33.9166 35.2002 33.9166H30.2502M24.7502 33.9166H19.8002C18.9576 33.9166 18.1232 33.7506 17.3447 33.4281C16.5662 33.1057 15.8588 32.633 15.2629 32.0372C14.0596 30.8338 13.3835 29.2017 13.3835 27.4999C13.3835 25.7981 14.0596 24.166 15.2629 22.9627C16.4663 21.7593 18.0984 21.0833 19.8002 21.0833H24.7502" stroke="black" stroke-width="2" stroke-linecap="round" stroke-linejoin="round"/>
<path d="M22.3667 27.5H32.6334" stroke="black" stroke-width="2" stroke-linecap="round" stroke-linejoin="round"/>
</g>
<defs>
<clipPath id="clip0_1431_3774">
<rect width="30.8" height="30.8" fill="white" transform="translate(12.1001 12.1)"/>
</clipPath>
</defs>
</svg>
