<svg width="125" height="140" viewBox="0 0 125 140" fill="none" xmlns="http://www.w3.org/2000/svg">
<rect x="0.5" y="0.5" width="124" height="139" rx="6.7" fill="#F3F3F3" stroke="#E4E4E4"/>
<g clip-path="url(#clip0_1244_1357)">
<path d="M52.2667 74.78C52.2188 74.1615 52.2252 73.5877 51.6985 73.0586C48.8256 70.1545 46.9263 66.6511 45.7292 62.762C45.5441 62.1595 45.3845 61.5379 44.8706 61.1043C43.6991 56.9602 43.3894 52.73 43.4501 48.4551C43.4903 47.9246 43.4903 47.3918 43.4501 46.8612C43.422 46.3592 43.5249 45.8585 43.7487 45.4081C43.9725 44.9577 44.3096 44.5731 44.7269 44.2919C47.3764 42.223 49.4864 39.7556 50.2078 36.3224C50.3961 35.3334 50.4944 34.3294 50.5015 33.3226C50.5174 32.6564 50.3195 31.8084 51.0441 31.4514C51.6825 31.1326 52.238 31.7351 52.7487 32.089C55.8742 34.2133 59.3521 35.7675 63.021 36.6794C67.0993 37.7229 71.3585 37.8514 75.4926 37.0556C77.7781 36.6029 78.2346 36.9663 78.8124 39.2488C79.5753 42.274 79.5051 45.3502 79.5114 48.4264C79.5625 52.7108 79.272 56.9538 78.0941 61.1011C77.4876 61.6112 77.3631 62.3762 77.1365 63.0584C75.9235 66.7722 74.0976 70.129 71.3651 72.9406C71.1512 73.133 70.9784 73.3666 70.8572 73.6273C70.736 73.8881 70.6688 74.1707 70.6597 74.458C70.3537 74.4233 70.0464 74.5104 69.8042 74.7003C64.7479 78.2069 59.5224 78.3471 54.1628 75.4175C53.5627 75.0988 52.9945 74.7353 52.2667 74.78Z" fill="#E0E0E0"/>
<path d="M79.0869 48.2636C79.1125 44.9228 79.0486 41.5947 78.1006 38.3496C77.8739 37.5654 77.6505 37.0298 76.5971 37.2721C67.4995 39.3505 59.299 37.1669 51.7496 31.9676C51.5836 31.8528 51.3985 31.7604 51.1112 31.585C50.875 33.1789 51.092 34.6836 50.7537 36.1723C50.0291 39.3601 48.5192 42.0984 45.8793 43.9282C44.1843 45.1013 43.6768 46.4211 43.9002 48.27C42.585 48.3369 41.5572 47.591 40.4559 47.0554C38.8343 41.939 38.1001 36.7078 38.978 31.3906C39.6164 27.5142 42.518 24.9385 46.5177 24.5336C48.1138 24.3711 49.3364 23.9566 50.5749 22.8568C52.6051 21.0557 55.2993 20.5138 57.8976 20.0165C62.3887 19.1555 66.9669 18.8345 71.5344 19.0602C76.9929 19.3311 80.8202 22.248 82.5184 27.4537C84.6412 33.96 84.0922 40.5236 82.5472 47.0491C81.4267 47.5878 80.3989 48.321 79.0869 48.2636Z" fill="#757575"/>
<path d="M49.0907 120.917C46.122 120.936 43.1501 120.993 40.1815 120.955C38.3588 120.933 36.9447 120.027 35.9423 118.532C35.6308 117.984 35.1932 117.517 34.6655 117.171C34.3622 113.413 34.6048 109.651 34.5155 105.889C32.8204 106.412 32.0799 107.324 31.9969 109.208C31.8936 111.638 31.9405 114.071 32.1373 116.495C26.0085 114.308 22.4716 109.935 21.2618 103.575C19.6657 95.1944 25.5233 86.5077 34.059 84.8245C35.99 84.4994 37.9366 84.2748 39.891 84.1519C42.9458 83.8809 46.0103 83.6641 49.0683 83.4219C49.595 83.9957 49.4897 84.697 49.4897 85.3888C49.4897 96.4185 49.6493 107.452 49.5759 118.481C49.5695 119.313 49.7131 120.196 49.0907 120.917Z" fill="#E0E0E0"/>
<path d="M73.8966 83.4189C79.1668 83.8939 84.504 83.8589 89.6753 85.0383C96.3787 86.5621 101.259 92.3703 101.93 99.6353C102.214 102.854 101.532 106.085 99.9695 108.915C98.4071 111.745 96.0356 114.045 93.1579 115.523C92.4077 115.906 91.6959 116.394 90.8276 116.502C91.0047 114.128 91.0559 111.747 90.9808 109.368C90.9521 108.217 90.6616 107.155 89.7327 106.384C89.4486 106.148 89.123 105.851 88.74 106.001C88.3569 106.151 88.4399 106.639 88.4399 106.986C88.4399 109.377 88.4399 111.768 88.4399 114.153C88.4514 115.163 88.4034 116.173 88.2963 117.178C87.9771 117.455 87.5653 117.672 87.3769 118.016C86.1001 120.366 84.0508 121.08 81.5162 120.997C78.9817 120.914 76.4248 120.946 73.8775 120.93C73.2837 120.264 73.3955 119.438 73.3891 118.654C73.3125 107.512 73.488 96.3742 73.4721 85.2328C73.4721 84.5952 73.4082 83.9386 73.8966 83.4189Z" fill="#E0E0E0"/>
<path d="M52.2667 74.7805C52.586 74.5542 52.4327 73.7604 53.3201 74.3565C58.7467 78.0097 64.2532 77.9906 69.6893 74.331C70.2001 73.9867 70.382 74.0983 70.647 74.4713C71.0492 77.5188 71.4737 80.5568 72.9581 83.3206C73.3429 83.7268 73.5694 84.2572 73.5965 84.8157C73.7178 85.3576 73.8327 85.8996 73.4656 86.4096C70.9981 88.5231 68.1858 90.0851 65.2938 91.5101C64.4862 91.9054 63.6977 92.3166 62.871 92.6927C62.0442 93.0689 61.2111 93.1773 60.4098 92.8043C56.5793 91.0192 52.7711 89.2117 49.5119 86.4542C49.1385 85.9474 49.2119 85.3991 49.3523 84.8412C49.3742 84.2768 49.6012 83.7396 49.9908 83.3302C51.4591 80.6716 51.8709 77.7324 52.2667 74.7805Z" fill="#BEBEBE"/>
<path d="M49.6366 84.9236C49.4546 85.3635 49.3173 85.8003 49.694 86.2147C49.8727 89.2155 49.8951 92.2235 49.761 95.2266C49.7164 96.9512 50.3069 98.0701 51.7114 99.0519C54.6578 101.099 54.2236 101.306 56.3528 98.5801C56.672 98.1753 56.9912 97.7194 57.5754 97.6429C58.6415 98.7491 59.7205 99.8457 59.9184 101.484C58.9607 107.547 57.9478 113.604 56.8795 119.655C56.7965 120.123 56.739 120.611 56.3177 120.93H49.0907C49.0907 108.429 49.0833 95.9311 49.0684 83.4349C49.1147 83.4128 49.1654 83.4014 49.2168 83.4014C49.2682 83.4014 49.3189 83.4128 49.3652 83.4349C49.9079 83.8398 49.3333 84.4614 49.6366 84.9236Z" fill="#9F9F9F"/>
<path d="M73.2708 86.2246C73.6347 85.8038 73.5102 85.3607 73.3315 84.9145C73.6219 84.4522 73.0569 83.837 73.5996 83.4194C73.6454 83.3954 73.6963 83.3828 73.748 83.3828C73.7997 83.3828 73.8507 83.3954 73.8965 83.4194L73.8773 120.927L66.6504 120.908C65.9289 120.27 66.0502 119.355 65.9066 118.549C64.9011 112.878 63.9594 107.194 63.0337 101.507C63.2667 99.913 64.3648 98.8069 65.3448 97.6433C66.3822 97.892 66.7812 98.8356 67.3814 99.556C68.5561 100.952 68.5369 100.799 70.0723 99.9704C72.6739 98.5646 73.4496 96.5467 73.207 93.6968C73.0057 91.2092 73.0271 88.7085 73.2708 86.2246Z" fill="#9F9F9F"/>
<path d="M63.3978 101.213C64.5788 107.761 65.7504 114.312 66.6473 120.904H56.3145C57.221 114.312 58.3989 107.764 59.564 101.213C60.7944 101.705 62.1674 101.705 63.3978 101.213Z" fill="#E0E0E0"/>
<path d="M40.4401 47.0467C41.7616 46.9607 42.7831 47.7226 43.8844 48.2613C43.9099 52.3576 44.1685 56.4252 45.1612 60.4227C45.1937 60.551 45.184 60.6864 45.1334 60.8087C45.0828 60.931 44.994 61.0338 44.8803 61.1017C39.974 60.2793 38.2886 55.8036 38.6653 51.0666C38.7738 49.5428 39.0196 48.0286 40.4401 47.0467Z" fill="#BEBEBE"/>
<path d="M79.0871 48.2639C80.1916 47.7347 81.2067 46.9633 82.5314 47.0589C83.9774 48.0152 84.204 49.5517 84.3253 51.0755C84.6988 55.7648 83.0485 60.3201 78.0943 61.1107C77.5549 59.9599 78.238 58.9111 78.388 57.8241C78.8393 54.657 79.0729 51.4628 79.0871 48.2639Z" fill="#BEBEBE"/>
<path d="M88.2962 117.178C88.0536 117.095 87.7376 117.076 87.7759 116.709C88.1494 113.282 87.9131 109.846 87.9131 106.416C87.9131 104.914 88.6665 105.141 89.4645 105.549C90.0457 105.822 90.5383 106.253 90.8865 106.793C91.2346 107.332 91.4243 107.958 91.434 108.6C91.5266 110.764 91.434 112.935 91.4755 115.103C91.4755 115.702 91.0797 116.059 90.8371 116.508C90.0466 116.907 89.1808 117.135 88.2962 117.178Z" fill="#BEBEBE"/>
<path d="M32.1405 116.495C31.7232 116.018 31.489 115.408 31.4797 114.774C31.5308 112.82 31.4797 110.866 31.4989 108.912C31.4928 108.219 31.6782 107.538 32.0347 106.944C32.3912 106.35 32.905 105.866 33.5195 105.545C34.3016 105.093 35.0581 104.936 35.0549 106.422C35.0549 109.849 34.8155 113.282 35.189 116.703C35.2305 117.069 34.9113 117.088 34.6687 117.171C33.791 117.106 32.9334 116.877 32.1405 116.495Z" fill="#BEBEBE"/>
<path d="M49.6364 84.924C49.148 84.4936 49.4225 83.9294 49.365 83.4225L50.0035 83.3301C50.128 83.9166 49.7577 84.3916 49.6364 84.924Z" fill="#585858"/>
<path d="M73.6124 83.4191C73.5613 83.926 73.8263 84.487 73.3443 84.9142C73.2198 84.3882 72.8559 83.9132 72.9836 83.3203L73.6124 83.4191Z" fill="#585858"/>
<path d="M57.6328 97.7005L56.5124 99.0234C54.3226 101.602 54.4152 101.468 51.5838 99.5462C49.7866 98.3253 49.1322 96.9609 49.3078 94.8347C49.5057 92.4725 49.3461 90.0785 49.3588 87.6972C49.3588 87.1871 49.1992 86.6229 49.6781 86.2148C52.9245 88.5473 56.3879 90.5627 60.0205 92.2334C60.9398 92.6733 61.8145 92.7785 62.7434 92.3545C63.2031 92.9124 62.9509 93.3938 62.5806 93.8624C61.4761 93.6456 60.8345 94.2226 60.1705 95.0451C59.4204 95.9918 58.9288 97.2574 57.6328 97.7005Z" fill="#757575"/>
<path d="M62.4402 93.9064C62.5487 93.3932 62.6541 92.88 62.7594 92.3635C66.4271 90.6007 69.9864 88.6529 73.271 86.2334C73.7754 86.6382 73.5903 87.2057 73.5903 87.7157C73.5903 90.6326 73.5615 93.5494 73.619 96.463C73.6381 97.4576 73.4306 98.1781 72.5017 98.6945C71.7301 99.1565 70.9949 99.6765 70.3024 100.25C68.419 101.72 68.4318 101.726 66.989 99.8134C66.4495 99.0962 65.8781 98.4076 65.3227 97.7031C63.9086 96.7755 62.7594 95.6533 62.4402 93.9064Z" fill="#757575"/>
<path d="M62.4401 93.9071L65.3417 97.7037C65.1662 99.135 63.7457 99.881 63.4041 101.21C61.6357 102.549 61.3484 102.549 59.5736 101.21C59.3246 99.8204 57.7988 99.1287 57.6392 97.7037C58.5968 96.4796 59.647 95.3033 60.5312 94.0218C61.192 93.0495 61.7378 92.9762 62.4401 93.9071Z" fill="#BEBEBE"/>
</g>
<defs>
<clipPath id="clip0_1244_1357">
<rect width="81" height="102" fill="white" transform="translate(21 19)"/>
</clipPath>
</defs>
</svg>
