<svg width="18" height="18" viewBox="0 0 18 18" fill="none" xmlns="http://www.w3.org/2000/svg">
<path d="M2.80922 12.75C2.64891 12.75 2.51562 12.6958 2.40938 12.5873C2.30313 12.4789 2.25 12.3445 2.25 12.1842C2.25 12.0239 2.30422 11.8906 2.41266 11.7844C2.52111 11.6781 2.65548 11.625 2.81578 11.625C2.97609 11.625 3.10938 11.6792 3.21563 11.7877C3.32188 11.8961 3.375 12.0305 3.375 12.1908C3.375 12.3511 3.32078 12.4844 3.21234 12.5906C3.10389 12.6969 2.96952 12.75 2.80922 12.75ZM2.80922 9.5625C2.64891 9.5625 2.51562 9.50828 2.40938 9.39984C2.30313 9.29139 2.25 9.15702 2.25 8.99672C2.25 8.83641 2.30422 8.70312 2.41266 8.59687C2.52111 8.49062 2.65548 8.4375 2.81578 8.4375C2.97609 8.4375 3.10938 8.49172 3.21563 8.60016C3.32188 8.70861 3.375 8.84298 3.375 9.00328C3.375 9.16359 3.32078 9.29688 3.21234 9.40312C3.10389 9.50937 2.96952 9.5625 2.80922 9.5625ZM2.80922 6.375C2.64891 6.375 2.51562 6.32078 2.40938 6.21234C2.30313 6.10389 2.25 5.96952 2.25 5.80922C2.25 5.64891 2.30422 5.51562 2.41266 5.40937C2.52111 5.30313 2.65548 5.25 2.81578 5.25C2.97609 5.25 3.10938 5.30422 3.21563 5.41266C3.32188 5.52111 3.375 5.65548 3.375 5.81578C3.375 5.97609 3.32078 6.10937 3.21234 6.21562C3.10389 6.32187 2.96952 6.375 2.80922 6.375ZM5.4375 12.75V11.625H15.75V12.75H5.4375ZM5.4375 9.5625V8.4375H15.75V9.5625H5.4375ZM5.4375 6.375V5.25H15.75V6.375H5.4375Z" fill="black"/>
</svg>
