<svg width="55" height="55" viewBox="0 0 55 55" fill="none" xmlns="http://www.w3.org/2000/svg">
<g clip-path="url(#clip0_1431_3764)">
<path d="M27.5 0C42.6855 0 55 12.3145 55 27.5C55 42.6855 42.6855 55 27.5 55C12.3145 55 0 42.6855 0 27.5C0 12.3145 12.3145 0 27.5 0Z" fill="#1DA1F2"/>
<path d="M21.12 41.47C34.089 41.47 41.1895 30.723 41.1895 21.4005C41.1895 21.098 41.1895 20.79 41.1675 20.4875C42.548 19.4865 43.7415 18.2545 44.6875 16.8355C43.4005 17.4075 42.0365 17.7815 40.6395 17.9465C42.1135 17.0665 43.2135 15.6805 43.7415 14.047C42.3555 14.8665 40.843 15.4495 39.2645 15.7575C36.5915 12.9195 32.1255 12.782 29.2875 15.4495C27.456 17.171 26.6805 19.7395 27.247 22.187C21.5765 21.901 16.291 19.2225 12.7105 14.817C10.8405 18.04 11.792 22.1595 14.894 24.233C13.772 24.2 12.672 23.8975 11.693 23.353C11.693 23.3805 11.693 23.4135 11.693 23.441C11.693 26.796 14.058 29.689 17.3525 30.3545C16.313 30.635 15.224 30.679 14.168 30.4755C15.092 33.3465 17.7375 35.3155 20.757 35.376C18.26 37.3395 15.1745 38.4065 12.001 38.401C11.44 38.401 10.879 38.368 10.3235 38.2965C13.5355 40.37 17.292 41.47 21.12 41.4645" fill="white"/>
</g>
<defs>
<clipPath id="clip0_1431_3764">
<rect width="55" height="55" fill="white"/>
</clipPath>
</defs>
</svg>
