<svg width="72" height="72" viewBox="0 0 72 72" fill="none" xmlns="http://www.w3.org/2000/svg">
<circle cx="34.1538" cy="36.2952" r="30.4615" fill="#ECECEC"/>
<path d="M33.3076 20.2183V37.9875L45.1538 46.449" stroke="#A6A6A6" stroke-width="6" stroke-linecap="round"/>
<path d="M57.3933 18.5048L55.0384 16.15C54.8596 15.9711 54.641 15.8817 54.3827 15.8817C54.1243 15.8817 53.9058 15.9711 53.7269 16.15C53.5481 16.3288 53.4586 16.5474 53.4586 16.8058C53.4586 17.0641 53.5481 17.2827 53.7269 17.4615L56.6779 20.4125C56.8567 20.5913 57.0703 20.6808 57.3187 20.6808C57.5671 20.6808 57.7808 20.5913 57.9596 20.4125L63.474 14.8981C63.633 14.7391 63.7125 14.5304 63.7125 14.2721C63.7125 14.0138 63.633 13.8051 63.474 13.6461C63.315 13.4872 63.1114 13.4077 62.863 13.4077C62.6146 13.4077 62.4109 13.4872 62.2519 13.6461L57.3933 18.5048ZM58.6154 29.2058C58.5359 29.2058 58.4614 29.2008 58.3918 29.1909C58.3223 29.1809 58.2577 29.166 58.1981 29.1461C55.5352 28.3513 53.3493 26.7168 51.6404 24.2428C49.9314 21.7687 49.0769 19.0513 49.0769 16.0904V10.2481C49.0769 9.8705 49.1862 9.52771 49.4048 9.2197C49.6234 8.91169 49.9016 8.68813 50.2394 8.54903L57.9894 5.65768C58.208 5.5782 58.4166 5.53845 58.6154 5.53845C58.8141 5.53845 59.0227 5.5782 59.2413 5.65768L66.9913 8.54903C67.3291 8.68813 67.6074 8.91169 67.8259 9.2197C68.0445 9.52771 68.1538 9.8705 68.1538 10.2481V16.0904C68.1538 19.0513 67.2993 21.7687 65.5904 24.2428C63.8814 26.7168 61.6955 28.3513 59.0327 29.1461L58.6154 29.2058Z" fill="#FFB600"/>
</svg>
