<svg width="24" height="24" viewBox="0 0 24 24" fill="none" xmlns="http://www.w3.org/2000/svg">
<path d="M10.975 12.9502L9 10.9752C8.85 10.8252 8.66667 10.7502 8.45 10.7502C8.23333 10.7502 8.05 10.8252 7.9 10.9752C7.75 11.1252 7.675 11.3085 7.675 11.5252C7.675 11.7419 7.75 11.9252 7.9 12.0752L10.375 14.5502C10.525 14.7002 10.7042 14.7752 10.9125 14.7752C11.1208 14.7752 11.3 14.7002 11.45 14.5502L16.075 9.9252C16.2083 9.79186 16.275 9.61686 16.275 9.4002C16.275 9.18353 16.2083 9.00853 16.075 8.8752C15.9417 8.74186 15.7708 8.6752 15.5625 8.6752C15.3542 8.6752 15.1833 8.74186 15.05 8.8752L10.975 12.9502ZM12 21.9252C11.9333 21.9252 11.8708 21.921 11.8125 21.9127C11.7542 21.9044 11.7 21.8919 11.65 21.8752C9.41667 21.2085 7.58333 19.8377 6.15 17.7627C4.71667 15.6877 4 13.4085 4 10.9252V6.0252C4 5.70853 4.09167 5.42103 4.275 5.1627C4.45833 4.90436 4.69167 4.71686 4.975 4.6002L11.475 2.1752C11.6583 2.10853 11.8333 2.0752 12 2.0752C12.1667 2.0752 12.3417 2.10853 12.525 2.1752L19.025 4.6002C19.3083 4.71686 19.5417 4.90436 19.725 5.1627C19.9083 5.42103 20 5.70853 20 6.0252V10.9252C20 13.4085 19.2833 15.6877 17.85 17.7627C16.4167 19.8377 14.5833 21.2085 12.35 21.8752L12 21.9252Z" fill="#11C564"/>
</svg>
