<svg width="12" height="12" viewBox="0 0 12 12" fill="none" xmlns="http://www.w3.org/2000/svg">
<path d="M10.2 11.2L8.1 9.1375C7.80833 9.25417 7.47917 9.34375 7.1125 9.40625C6.74583 9.46875 6.375 9.5 6 9.5C4.78333 9.5 3.67917 9.16042 2.6875 8.48125C1.69583 7.80208 0.966667 6.89167 0.5 5.75C0.666667 5.31667 0.897917 4.89375 1.19375 4.48125C1.48958 4.06875 1.85 3.675 2.275 3.3L0.7 1.725L1.225 1.1875L10.6875 10.65L10.2 11.2ZM6 7.875C6.11667 7.875 6.24167 7.86458 6.375 7.84375C6.50833 7.82292 6.62083 7.79167 6.7125 7.75L4 5.0375C3.95833 5.1375 3.92708 5.25 3.90625 5.375C3.88542 5.5 3.875 5.625 3.875 5.75C3.875 6.35 4.08333 6.85417 4.5 7.2625C4.91667 7.67083 5.41667 7.875 6 7.875ZM9.475 8.375L7.8625 6.7625C7.94583 6.62917 8.01042 6.47292 8.05625 6.29375C8.10208 6.11458 8.125 5.93333 8.125 5.75C8.125 5.15833 7.91875 4.65625 7.50625 4.24375C7.09375 3.83125 6.59167 3.625 6 3.625C5.81667 3.625 5.6375 3.64583 5.4625 3.6875C5.2875 3.72917 5.12917 3.79583 4.9875 3.8875L3.6125 2.5C3.90417 2.36667 4.27708 2.25 4.73125 2.15C5.18542 2.05 5.62917 2 6.0625 2C7.25417 2 8.34375 2.33958 9.33125 3.01875C10.3188 3.69792 11.0417 4.60833 11.5 5.75C11.2833 6.28333 11.0042 6.77083 10.6625 7.2125C10.3208 7.65417 9.925 8.04167 9.475 8.375ZM7.3125 6.2125L5.5375 4.4375C5.77917 4.34583 6.02917 4.32708 6.2875 4.38125C6.54583 4.43542 6.77083 4.55417 6.9625 4.7375C7.15417 4.92917 7.2875 5.14375 7.3625 5.38125C7.4375 5.61875 7.42083 5.89583 7.3125 6.2125Z" fill="#FFB600"/>
</svg>
