<svg width="70" height="70" viewBox="0 0 70 70" fill="none" xmlns="http://www.w3.org/2000/svg">
<circle cx="35" cy="35" r="33" fill="#00863E"/>
<path d="M35.0439 41.207C36.9003 41.207 38.4768 40.5572 39.7732 39.2577C41.0696 37.9582 41.7178 36.3802 41.7178 34.5238C41.7178 32.6673 41.0681 31.0909 39.7686 29.7945C38.4691 28.498 36.8911 27.8498 35.0346 27.8498C33.1782 27.8498 31.6018 28.4996 30.3054 29.7991C29.0089 31.0986 28.3607 32.6766 28.3607 34.533C28.3607 36.3895 29.0105 37.9659 30.31 39.2623C31.6095 40.5587 33.1875 41.207 35.0439 41.207ZM35.03 38.9284C33.8052 38.9284 32.7673 38.4997 31.9161 37.6424C31.0649 36.785 30.6393 35.7439 30.6393 34.5192C30.6393 33.2944 31.0679 32.2564 31.9253 31.4052C32.7827 30.554 33.8237 30.1284 35.0485 30.1284C36.2733 30.1284 37.3113 30.5571 38.1625 31.4144C39.0137 32.2718 39.4393 33.3129 39.4393 34.5376C39.4393 35.7624 39.0106 36.8004 38.1533 37.6516C37.2959 38.5028 36.2548 38.9284 35.03 38.9284ZM35.0393 46.3141C31.425 46.3141 28.1315 45.332 25.1589 43.3677C22.1863 41.4034 19.89 38.8095 18.27 35.5861C18.1876 35.4571 18.1268 35.2987 18.0875 35.1108C18.0482 34.9229 18.0286 34.7288 18.0286 34.5284C18.0286 34.328 18.0482 34.1338 18.0875 33.9459C18.1268 33.758 18.1876 33.5996 18.27 33.4707C19.89 30.2473 22.1863 27.6534 25.1589 25.6891C28.1315 23.7248 31.425 22.7427 35.0393 22.7427C38.6536 22.7427 41.947 23.7248 44.9196 25.6891C47.8923 27.6534 50.1886 30.2473 51.8086 33.4707C51.8909 33.5996 51.9518 33.758 51.9911 33.9459C52.0303 34.1338 52.05 34.328 52.05 34.5284C52.05 34.7288 52.0303 34.9229 51.9911 35.1108C51.9518 35.2987 51.8909 35.4571 51.8086 35.5861C50.1886 38.8095 47.8923 41.4034 44.9196 43.3677C41.947 45.332 38.6536 46.3141 35.0393 46.3141ZM35.0326 43.957C38.2061 43.957 41.122 43.0992 43.7803 41.3837C46.4387 39.6683 48.4619 37.3832 49.85 34.5284C48.4619 31.6736 46.4409 29.3885 43.787 27.673C41.1331 25.9576 38.2194 25.0998 35.0459 25.0998C31.8724 25.0998 28.9565 25.9576 26.2982 27.673C23.6399 29.3885 21.6036 31.6736 20.1893 34.5284C21.6036 37.3832 23.6377 39.6683 26.2916 41.3837C28.9455 43.0992 31.8592 43.957 35.0326 43.957Z" fill="white"/>
</svg>
