<svg width="70" height="70" viewBox="0 0 70 70" fill="none" xmlns="http://www.w3.org/2000/svg">
<circle cx="35" cy="35" r="33" fill="#00863E"/>
<path fill-rule="evenodd" clip-rule="evenodd" d="M42.5995 37.6166C42.2124 37.4238 40.3092 36.4919 39.9544 36.3632C39.5996 36.2347 39.3416 36.1705 39.0835 36.5561C38.8255 36.9417 38.0836 37.8095 37.8578 38.0666C37.632 38.3237 37.4062 38.356 37.0191 38.163C36.632 37.9702 35.3847 37.5635 33.9062 36.2509C32.7555 35.2294 31.9786 33.9678 31.7528 33.5822C31.527 33.1965 31.7287 32.988 31.9225 32.7959C32.0967 32.6233 32.3096 32.346 32.5031 32.121C32.6967 31.8961 32.7612 31.7353 32.8902 31.4783C33.0193 31.2212 32.9548 30.9962 32.8579 30.8034C32.7612 30.6106 31.9871 28.7144 31.6645 27.9429C31.3503 27.1918 31.0312 27.2935 30.7935 27.2816C30.568 27.2705 30.3096 27.2681 30.0517 27.2681C29.7936 27.2681 29.3742 27.3645 29.0194 27.7501C28.6646 28.1358 27.6646 29.0679 27.6646 30.964C27.6646 32.8603 29.0516 34.692 29.2452 34.9492C29.4387 35.2063 31.9747 39.0975 35.8579 40.7662C36.7814 41.1631 37.5025 41.4002 38.0646 41.5777C38.9919 41.8709 39.8358 41.8296 40.5028 41.7303C41.2465 41.6198 42.793 40.7984 43.1156 39.8986C43.4381 38.9986 43.4381 38.2273 43.3414 38.0666C43.2446 37.9059 42.9866 37.8095 42.5995 37.6166ZM35.5365 47.2143H35.5313C33.2207 47.2134 30.9545 46.5956 28.9776 45.428L28.5073 45.1503L23.6339 46.4226L24.9347 41.6937L24.6286 41.2089C23.3396 39.1686 22.6588 36.8104 22.6598 34.389C22.6627 27.3235 28.4391 21.5753 35.5416 21.5753C38.9809 21.5764 42.2139 22.9111 44.6451 25.3334C47.0762 27.7556 48.4142 30.9753 48.4129 34.3994C48.4099 41.4654 42.6336 47.2143 35.5365 47.2143ZM46.4953 23.4928C43.5704 20.5786 39.6807 18.9729 35.5364 18.9712C26.9973 18.9712 20.0476 25.8872 20.0441 34.3881C20.043 37.1055 20.7563 39.7578 22.1121 42.096L19.9143 50.0855L28.1268 47.9415C30.3897 49.1698 32.9373 49.8173 35.5302 49.8181H35.5366C44.0747 49.8181 51.0251 42.9013 51.0286 34.4004C51.0302 30.2807 49.4202 26.4071 46.4953 23.4928Z" fill="white"/>
</svg>
