<svg width="24" height="24" viewBox="0 0 24 24" fill="none" xmlns="http://www.w3.org/2000/svg">
<path d="M12 1C5.9251 1 1 5.9251 1 12C1 14.2226 1.66091 16.2959 2.79712 18.0251L1.38025 22.8235L6.3642 21.4428C8.01193 22.4296 9.94033 22.9955 12 22.9955C18.0749 22.9955 23 18.0704 23 11.9955C23 5.9251 18.0749 1 12 1Z" fill="#25D366"/>
<path d="M18.0431 15.02C18.0295 14.8751 17.9435 14.7484 17.8122 14.6895C16.925 14.2821 16.0332 13.8747 15.146 13.4673C15.0464 13.4221 14.9241 13.4447 14.8517 13.5307L13.6476 14.8887C13.5525 14.9974 13.4032 15.0336 13.2719 14.9793C12.6472 14.7212 11.8052 14.2867 10.9542 13.5533C9.93566 12.6797 9.33813 11.7426 9.00315 11.1315C9.17064 11.0183 9.62785 10.6788 9.83155 10.0496C9.83155 10.0451 9.83608 10.0406 9.83608 10.0406C9.96282 9.65127 9.93566 9.23028 9.79534 8.84551C9.55542 8.20724 9.07558 6.97144 8.88999 6.78131C8.8583 6.74962 8.82208 6.71794 8.82208 6.71794C8.68628 6.59572 8.50974 6.52781 8.32414 6.51876C8.26077 6.51423 8.19287 6.51423 8.12044 6.51423C7.91221 6.50971 7.72661 6.50971 7.59081 6.52781C7.20603 6.58213 6.92538 6.84016 6.74883 7.05744C6.53608 7.31547 6.28258 7.70024 6.11509 8.20724C6.10151 8.25251 6.08793 8.29325 6.07435 8.33851C5.88875 8.98131 5.92496 9.66938 6.14678 10.3031C6.35501 10.8961 6.6583 11.6023 7.1155 12.3492C7.88957 13.6212 8.73155 14.4089 9.30192 14.9295C9.94472 15.5225 10.7414 16.2513 12.0044 16.8579C13.1723 17.4192 14.2315 17.6274 14.9422 17.7134C15.232 17.7406 15.7661 17.7451 16.3772 17.5142C16.6579 17.4056 16.8933 17.2743 17.0834 17.134C17.5859 16.7764 17.939 16.2377 18.0295 15.6311C18.0295 15.6266 18.0295 15.6221 18.0295 15.6175C18.0612 15.3867 18.0567 15.1875 18.0431 15.02Z" fill="white"/>
</svg>
