<svg width="55" height="55" viewBox="0 0 55 55" fill="none" xmlns="http://www.w3.org/2000/svg">
<g clip-path="url(#clip0_1431_3753)">
<path d="M27.5 55C12.3145 55 0 42.6855 0 27.5C0 12.3145 12.3145 0 27.5 0C42.6855 0 55 12.3145 55 27.5C55 42.6855 42.6855 55 27.5 55Z" fill="#25D366"/>
<path fill-rule="evenodd" clip-rule="evenodd" d="M40.3645 14.696C36.9545 11.2805 32.4115 9.39954 27.577 9.39404C17.6165 9.39404 9.50397 17.501 9.50397 27.467C9.50397 30.6515 10.3345 33.7645 11.9185 36.5035L9.35547 45.87L18.9365 43.3565C21.5765 44.7975 24.5465 45.5565 27.5715 45.5565H27.577C37.5375 45.5565 45.6445 37.4495 45.65 27.4835C45.6555 22.6545 43.78 18.1115 40.3645 14.696ZM27.5825 42.504H27.577C24.882 42.504 22.2365 41.778 19.932 40.4085L19.382 40.084L13.695 41.5746L15.213 36.0305L14.8555 35.464C13.354 33.0715 12.5565 30.3105 12.5565 27.467C12.562 19.184 19.2995 12.4465 27.588 12.4465C31.603 12.4465 35.3705 14.014 38.2085 16.852C41.0465 19.69 42.6085 23.4685 42.603 27.478C42.603 35.7665 35.86 42.504 27.5825 42.504ZM35.8215 31.251C35.3705 31.0255 33.1485 29.931 32.736 29.7825C32.3235 29.634 32.021 29.557 31.7185 30.008C31.416 30.459 30.5525 31.4765 30.2885 31.779C30.0245 32.0815 29.7605 32.12 29.3095 31.8945C28.8585 31.669 27.401 31.1905 25.6795 29.6505C24.3375 28.4515 23.43 26.972 23.166 26.521C22.902 26.07 23.1385 25.8225 23.364 25.597C23.5675 25.3935 23.815 25.069 24.0405 24.805C24.266 24.541 24.343 24.354 24.4915 24.0515C24.64 23.749 24.5685 23.485 24.453 23.2595C24.3375 23.034 23.4355 20.812 23.0615 19.9045C22.693 19.0245 22.3245 19.1455 22.044 19.129C21.78 19.118 21.4775 19.1125 21.1805 19.1125C20.878 19.1125 20.3885 19.228 19.976 19.679C19.5635 20.13 18.3975 21.2245 18.3975 23.4465C18.3975 25.6685 20.0145 27.819 20.24 28.116C20.4655 28.4185 23.4245 32.978 27.9565 34.936C29.0345 35.4035 29.876 35.6785 30.5305 35.8875C31.614 36.234 32.5985 36.1845 33.374 36.069C34.243 35.937 36.047 34.9745 36.421 33.924C36.795 32.868 36.795 31.966 36.685 31.779C36.575 31.592 36.2725 31.482 35.8215 31.251Z" fill="white"/>
</g>
<defs>
<clipPath id="clip0_1431_3753">
<rect width="55" height="55" fill="white"/>
</clipPath>
</defs>
</svg>
